<?xml version="1.0" encoding="utf-8"?>
<!-- Generator: Adobe Illustrator 19.1.0, SVG Export Plug-In . SVG Version: 6.00 Build 0)  -->
<svg version="1.1" id="Layer_1" xmlns="http://www.w3.org/2000/svg" xmlns:xlink="http://www.w3.org/1999/xlink" x="0px" y="0px"
	 viewBox="-196 321.2 218.5 151.8" style="enable-background:new -196 321.2 218.5 151.8;" xml:space="preserve">
<style type="text/css">
	.st0{fill:#DB5370;}
	.st1{fill:#FFFFFF;}
	.st2{fill:none;}
</style>
<g>
	<polygon class="st0" points="-151.7,323.1 -194.2,374.5 -82.4,471.1 20.7,374.7 -23,323.1 	"/>
	<g>
		<path class="st1" d="M-153,321.8c-14.2,17.2-28.3,34.3-42.5,51.4c-0.6,0.7-0.8,1.9,0,2.6c35.8,30.9,71.6,61.9,107.4,92.8
			c1.5,1.3,2.9,2.5,4.4,3.8c0.8,0.7,1.8,0.7,2.6,0c33.8-31.6,67.5-63.2,101.3-94.7c0.6-0.6,1.2-1.1,1.8-1.7c0.8-0.7,0.6-1.9,0-2.6
			C7.5,356.3-7,339.2-21.5,322c-1-1.2-3.1-0.8-4.5-0.8c-4.2,0-8.4,0-12.6,0c-14.3,0-28.6,0-42.9,0c-23.4,0-46.8,0-70.2,0
			c-2.4,0-2.4,3.7,0,3.7c21.8,0,43.5,0,65.3,0c14.8,0,29.6,0,44.3,0c4.7,0,9.5,0,14.2,0c1.2,0,2.4,0,3.7,0c1.8,0,0.4,0.2,0-0.4
			c14.5,17.2,29.1,34.3,43.6,51.5c0-0.9,0-1.7,0-2.6c-33.8,31.6-67.5,63.2-101.3,94.7c-0.6,0.6-1.2,1.1-1.8,1.7c0.9,0,1.7,0,2.6,0
			c-35.8-30.9-71.6-61.8-107.4-92.8c-1.5-1.2-2.9-2.5-4.4-3.8c0,0.9,0,1.7,0,2.6c14.2-17.1,28.3-34.2,42.5-51.4
			C-148.9,322.6-151.5,320-153,321.8z"/>
	</g>
</g>
<g>
	<line class="st2" x1="-194.2" y1="374.5" x2="18" y2="374.5"/>
	<g>
		<path class="st1" d="M-194.2,376.4c47.2,0,94.4,0,141.6,0c23.5,0,47.1,0,70.6,0c2.4,0,2.4-3.7,0-3.7c-47.2,0-94.4,0-141.6,0
			c-23.5,0-47.1,0-70.6,0C-196.5,372.7-196.5,376.4-194.2,376.4L-194.2,376.4z"/>
	</g>
</g>
<g>
	<polyline class="st0" points="-151.7,326.1 -122,374.5 -84.2,323.1 -45,373.4 -24.3,325.9 	"/>
	<g>
		<path class="st1" d="M-153.3,327c9.9,16.2,19.8,32.3,29.7,48.5c0.8,1.3,2.4,1.1,3.2,0c12.6-17.2,25.2-34.3,37.8-51.5
			c-1,0.1-1.9,0.2-2.9,0.4c13.1,16.7,26.1,33.5,39.2,50.2c0.7,0.9,2.4,0.6,2.9-0.4c6.9-15.8,13.8-31.6,20.7-47.4
			c0.9-2.1-2.2-4-3.2-1.9c-6.9,15.8-13.8,31.6-20.7,47.4c1-0.1,1.9-0.2,2.9-0.4c-13.1-16.7-26.1-33.5-39.2-50.2
			c-0.8-1-2.3-0.5-2.9,0.4c-12.6,17.2-25.2,34.4-37.7,51.5c1.1,0,2.1,0,3.2,0c-10-16.1-19.9-32.3-29.8-48.5
			C-151.3,323.1-154.5,325-153.3,327L-153.3,327z"/>
	</g>
</g>
<g>
	<polygon class="st0" points="-122.8,374.5 -82.4,471.1 -45,374.3 	"/>
	<g>
		<path class="st1" d="M-124.6,375c13.5,32.2,26.9,64.4,40.4,96.6c0.7,1.7,2.9,1.8,3.5,0c12.5-32.3,24.9-64.5,37.4-96.8
			c0.4-1.1-0.7-2.3-1.8-2.3c-25.9,0.1-51.9,0.1-77.8,0.2c-2.4,0-2.4,3.7,0,3.7c26-0.1,52-0.2,77.9-0.2c-0.6-0.8-1.2-1.5-1.8-2.3
			c-12.5,32.3-24.9,64.5-37.4,96.8c1.2,0,2.4,0,3.5,0c-13.4-32.2-26.8-64.4-40.3-96.6C-121.9,371.9-125.5,372.8-124.6,375z"/>
	</g>
</g>
</svg>
